<svg version="1.2" baseProfile="tiny-ps" xmlns="http://www.w3.org/2000/svg" viewBox="0 0 660 82" width="660" height="82">
	<title>RATE_LIMYTER</title>
	<style>
		tspan { white-space:pre }
	</style>
	<path id="R A T E  L   M I T E R " fill="#000000" aria-label="R A T E  L   M I T E R"  d="M53.75 57.75L53.75 57.75L39.56 59.8Q37.51 57.58 35.63 55.12Q33.8 52.67 32.04 50.22Q31.52 49.54 31.07 48.91Q30.61 48.23 30.16 47.54Q29.81 47.09 29.47 46.63Q29.13 46.12 28.79 45.66Q28.79 46.86 28.67 48.4Q28.62 49.88 28.56 51.42Q28.5 51.93 28.45 52.44Q28.45 52.9 28.45 53.41Q28.33 55.18 28.22 56.66Q28.16 58.15 28.1 59L13.34 59Q13.63 55.81 13.74 52.33Q13.91 48.85 13.91 45.21Q13.91 43.55 13.86 41.9Q13.86 40.19 13.8 38.54Q13.63 33.29 13.29 28.22Q13 23.09 12.6 18.59L29.3 18.59Q30.44 18.59 31.64 18.64Q32.84 18.64 34.09 18.7Q37.28 18.81 40.07 19.1Q42.87 19.38 43.84 20.01Q46.52 21.78 48.51 23.66Q50.56 25.54 51.82 27.71Q52.1 28.22 52.27 28.73Q52.5 29.19 52.61 29.64Q52.73 30.1 52.79 30.61Q52.84 31.07 52.84 31.58Q52.84 34.38 51.25 36.94Q49.65 39.51 47.71 41.67Q47.14 42.3 46.4 42.81Q45.72 43.27 44.86 43.61Q45.55 45.32 46.57 47.6Q47.66 49.88 49.19 52.22Q50.16 53.64 51.3 55.07Q52.44 56.44 53.75 57.75ZM35.74 34.89L35.74 34.89Q35.97 34.43 36.08 34.15Q36.2 33.86 36.2 33.63Q36.2 33.41 36.08 33.24Q36.03 33.06 35.86 32.89Q35.74 32.72 35.51 32.55Q35.34 32.38 35.12 32.15Q33.92 31.07 32.61 30.44Q31.3 29.82 29.99 29.25Q29.7 29.13 29.42 29.02Q29.13 28.9 28.85 28.79Q28.79 30.44 28.67 31.92Q28.62 33.35 28.62 34.72Q28.56 36.14 28.56 37.62Q28.56 39.05 28.56 40.7Q30.9 40.08 32.72 38.59Q34.55 37.11 35.74 34.89ZM128.6 59L128.6 59L112.35 59L109.73 52.56L96.28 52.56L93.94 59L78.83 59L94.79 18.59L109.5 18.59L128.6 59ZM105.23 41.67L105.23 41.67L102.55 35.29L100.21 41.67L105.23 41.67ZM185.42 18.59L185.42 18.59L182.46 32.49Q181.49 32.49 180.47 32.38Q179.5 32.27 178.47 32.1Q178.41 32.1 178.36 32.1Q178.36 32.1 178.3 32.1Q177.27 31.98 176.25 31.87Q175.22 31.75 174.2 31.75Q174.14 35.69 174.14 39.79Q174.14 43.89 174.25 48.06Q174.31 50.79 174.37 53.58Q174.42 56.32 174.54 59L158.29 59Q158.41 56.26 158.46 53.47Q158.58 50.68 158.58 47.83Q158.69 43.78 158.69 39.79Q158.69 35.74 158.63 31.87Q158.46 31.87 158.29 31.87Q158.18 31.87 158.01 31.87Q155.67 31.92 153.33 32.04Q151 32.15 148.72 32.78L149.86 18.59L185.42 18.59ZM240.26 29.36L240.26 29.36Q236.78 28.79 233.19 28.73Q229.66 28.62 226.07 28.9Q226.01 30.04 226.01 31.24Q226.01 32.44 226.01 33.63Q229.54 33.86 233.02 33.81Q236.55 33.69 240.03 33.12L237.64 43.89L225.95 43.89Q225.95 44.46 225.95 45.09Q226.01 45.66 226.01 46.29Q226.01 46.86 226.01 47.49Q226.07 48.06 226.07 48.68Q229.6 48.91 233.08 48.85Q236.61 48.74 240.09 48.17L237.69 59Q234.16 59 230.63 59Q227.15 59 223.61 59Q220.08 59 216.55 59Q213.07 59 209.54 59Q209.76 53.93 209.82 48.91Q209.93 43.84 209.93 38.76Q209.93 33.75 209.82 28.68Q209.71 23.6 209.54 18.59Q213.07 18.59 216.6 18.59Q220.14 18.59 223.73 18.59Q227.26 18.59 230.8 18.59Q234.33 18.59 237.86 18.59L240.26 29.36ZM314.53 43.44L314.53 43.44L311.74 59L282.95 59Q283.35 53.93 283.52 48.91Q283.69 43.84 283.69 38.76Q283.69 33.75 283.46 28.68Q283.29 23.6 282.95 18.59L300.17 18.59Q299.88 26.22 299.71 31.13Q299.6 36.03 299.65 40.47Q299.65 41.5 299.65 42.58Q299.71 43.67 299.71 44.75Q303.36 44.81 306.55 44.58Q309.74 44.29 312.88 43.72Q313.28 43.67 313.67 43.61Q314.13 43.5 314.53 43.44ZM434.06 59L434.06 59L417.02 59L414.11 45.03L404.99 59L395.98 44.52L392.28 59L377 59L386.98 18.59L398.43 18.59L406.47 36.71Q408.98 32.61 411.32 28.11Q413.71 23.55 415.93 18.59L426.99 18.59Q427.85 29.07 429.56 39.22Q431.27 49.31 434.06 59ZM472.14 59L472.14 59L455.32 59Q455.49 53.93 455.61 48.91Q455.72 43.84 455.72 38.76Q455.72 33.75 455.61 28.68Q455.49 23.6 455.32 18.59L472.14 18.59Q471.96 23.6 471.85 28.68Q471.74 33.75 471.74 38.76Q471.74 43.84 471.79 48.91Q471.91 53.93 472.14 59ZM529.59 18.59L529.59 18.59L526.63 32.49Q525.66 32.49 524.63 32.38Q523.66 32.27 522.64 32.1Q522.58 32.1 522.52 32.1Q522.52 32.1 522.47 32.1Q521.44 31.98 520.41 31.87Q519.39 31.75 518.36 31.75Q518.31 35.69 518.31 39.79Q518.31 43.89 518.42 48.06Q518.48 50.79 518.53 53.58Q518.59 56.32 518.7 59L502.46 59Q502.57 56.26 502.63 53.47Q502.74 50.68 502.74 47.83Q502.86 43.78 502.86 39.79Q502.86 35.74 502.8 31.87Q502.63 31.87 502.46 31.87Q502.34 31.87 502.17 31.87Q499.84 31.92 497.5 32.04Q495.16 32.15 492.88 32.78L494.02 18.59L529.59 18.59ZM584.42 29.36L584.42 29.36Q580.95 28.79 577.36 28.73Q573.82 28.62 570.23 28.9Q570.17 30.04 570.17 31.24Q570.17 32.44 570.17 33.63Q573.71 33.86 577.19 33.81Q580.72 33.69 584.2 33.12L581.8 43.89L570.12 43.89Q570.12 44.46 570.12 45.09Q570.17 45.66 570.17 46.29Q570.17 46.86 570.17 47.49Q570.23 48.06 570.23 48.68Q573.77 48.91 577.24 48.85Q580.78 48.74 584.25 48.17L581.86 59Q578.33 59 574.79 59Q571.31 59 567.78 59Q564.25 59 560.71 59Q557.24 59 553.7 59Q553.93 53.93 553.99 48.91Q554.1 43.84 554.1 38.76Q554.1 33.75 553.99 28.68Q553.87 23.6 553.7 18.59Q557.24 18.59 560.77 18.59Q564.3 18.59 567.89 18.59Q571.43 18.59 574.96 18.59Q578.5 18.59 582.03 18.59L584.42 29.36ZM647.64 57.75L647.64 57.75L633.45 59.8Q631.39 57.58 629.51 55.12Q627.69 52.67 625.92 50.22Q625.41 49.54 624.95 48.91Q624.5 48.23 624.04 47.54Q623.7 47.09 623.36 46.63Q623.01 46.12 622.67 45.66Q622.67 46.86 622.56 48.4Q622.5 49.88 622.44 51.42Q622.39 51.93 622.33 52.44Q622.33 52.9 622.33 53.41Q622.22 55.18 622.1 56.66Q622.05 58.15 621.99 59L607.23 59Q607.51 55.81 607.62 52.33Q607.8 48.85 607.8 45.21Q607.8 43.55 607.74 41.9Q607.74 40.19 607.68 38.54Q607.51 33.29 607.17 28.22Q606.88 23.09 606.48 18.59L623.19 18.59Q624.33 18.59 625.52 18.64Q626.72 18.64 627.97 18.7Q631.17 18.81 633.96 19.1Q636.75 19.38 637.72 20.01Q640.4 21.78 642.39 23.66Q644.45 25.54 645.7 27.71Q645.99 28.22 646.16 28.73Q646.38 29.19 646.5 29.64Q646.61 30.1 646.67 30.61Q646.73 31.07 646.73 31.58Q646.73 34.38 645.13 36.94Q643.53 39.51 641.6 41.67Q641.03 42.3 640.29 42.81Q639.6 43.27 638.75 43.61Q639.43 45.32 640.46 47.6Q641.54 49.88 643.08 52.22Q644.05 53.64 645.19 55.07Q646.33 56.44 647.64 57.75ZM629.63 34.89L629.63 34.89Q629.85 34.43 629.97 34.15Q630.08 33.86 630.08 33.63Q630.08 33.41 629.97 33.24Q629.91 33.06 629.74 32.89Q629.63 32.72 629.4 32.55Q629.23 32.38 629 32.15Q627.8 31.07 626.49 30.44Q625.18 29.82 623.87 29.25Q623.58 29.13 623.3 29.02Q623.01 28.9 622.73 28.79Q622.67 30.44 622.56 31.92Q622.5 33.35 622.5 34.72Q622.44 36.14 622.44 37.62Q622.44 39.05 622.44 40.7Q624.78 40.08 626.61 38.59Q628.43 37.11 629.63 34.89Z" />
	<path id="! " fill="#b64040" aria-label="!"  d="M349.52 8.92L337.21 8.92L337.21 24.31L340.37 51.29L346.44 51.29L349.52 24.31ZM336.97 61.49C336.97 65.7 338.1 67.49 343.37 67.49C348.63 67.49 349.85 65.7 349.85 61.49C349.85 57.28 348.63 55.42 343.37 55.42C338.1 55.42 336.97 57.28 336.97 61.49Z" />
</svg>